<?xml version="1.0" encoding="utf-8"?>
<svg viewBox="0 0 280 200" width="420px" height="300px" xmlns="http://www.w3.org/2000/svg" xmlns:bx="https://boxy-svg.com">
  <defs>
    <clipPath id="clippath0" transform="">
      <path d="M 0 289.04 L 499.147 289.04 L 499.147 0 L 0 0 Z" style="fill: none; clip-rule: nonzero;"/>
    </clipPath>
  </defs>
  <path d="M -154.556 -92.698 H -69.806 V -8.605 H -154.556 V -92.698 Z M -141.924 -78.256 V -23.047 H -82.438 V -78.256 H -141.924 Z" style="stroke: rgb(0, 0, 0); fill: rgb(255, 183, 0);" transform="matrix(0.005984, 0.999982, -0.999982, 0.005984, 75.829019, 189.251849)" bx:shape="frame -154.556 -92.698 84.75 84.093 12.632 14.442 0 0 0 0 1@76876f76"/>
  <g transform="matrix(-0.436995, 0.216867, 0.214706, 0.432638, 219.004703, -53.644837)">
    <g transform="">
      <path d="M 0 289.04 L 499.147 289.04 L 499.147 0 L 0 0 Z" style="fill: none;"/>
    </g>
    <g style="clip-path: url(#clippath0);">
      <g transform="translate(447.9648 47.6006)">
        <path d="M 0 0 C 1.229 1.689 2.787 3.346 4.448 4.621 C 11.272 9.865 21.621 10.337 29.235 6.57 C 31.419 5.49 33.841 3.988 35.585 2.273 C 41.266 -3.313 43.089 -12.104 41.168 -19.813 C 39.822 -25.223 36.525 -29.626 32.17 -33.02 C 25.408 -38.288 15.015 -39.214 7.681 -34.631 C 3.246 -31.861 -1.476 -27.887 -3.27 -22.822 C -5.9 -15.397 -4.643 -6.369 0 0 M -387.36 133.589 C -391.457 133.312 -395.877 133.758 -400.013 133.727 C -411.085 133.644 -422.165 133.83 -433.239 133.789 C -435.98 133.778 -438.721 133.8 -441.461 133.79 C -443.518 133.798 -445.574 133.812 -447.634 133.812 C -450.013 133.811 -438.857 113.659 -437.349 112.131 C -429.911 104.592 -419.506 100.208 -410.565 94.728 C -405.102 91.377 -399.636 88.028 -394.172 84.68 C -392.166 83.45 -378.272 76.657 -378.272 74.936 C -378.272 76.409 -378.875 86.669 -378.007 86.84 C -375.592 87.315 -351.145 89.945 -351.092 91.334 C -351.129 90.364 -350.915 88.893 -350.916 88.416 C -350.917 86.889 -351.016 86.945 -349.513 86.932 C -347.338 86.912 -345.162 86.92 -342.988 86.943 C -342.687 86.945 -342.841 92.939 -342.84 93.729 C -343.177 93.675 -343.513 93.616 -343.849 93.558 C -343.739 93.598 -343.632 93.641 -343.522 93.682 C -341.746 93.896 -339.964 94.024 -338.178 94.024 C -320.679 94.024 -302.993 94.691 -285.726 91.308 C -267.72 87.779 -251.644 78.547 -235.294 70.616 C -214.752 60.649 -194.21 50.686 -173.668 40.72 C -149.952 29.214 -126.236 17.708 -102.521 6.203 C -81.481 -4.003 -60.442 -14.21 -39.403 -24.417 C -28.496 -29.709 -17.624 -35.072 -6.729 -40.387 C -3.683 -41.873 -0.606 -43.305 2.54 -44.567 C 13.389 -48.923 25.967 -48.966 35.9 -42.215 C 38.43 -40.495 40.988 -38.277 42.921 -35.896 C 45.007 -33.327 47.112 -30.213 48.414 -27.158 C 49.591 -24.399 50.458 -21.306 50.839 -18.325 C 51.302 -14.712 51.35 -10.557 50.646 -6.968 C 49.933 -3.337 48.616 0.142 46.706 3.191 C 45.087 5.778 43.009 8.523 40.735 10.572 C 38.69 12.416 36.387 14.066 34.027 15.486 C 31.14 17.225 27.936 18.395 24.841 19.706 C 17.846 22.672 10.849 25.639 3.854 28.605 C -0.11 30.286 -4.074 31.966 -8.037 33.647 C -29.021 42.545 -50.004 51.441 -70.987 60.339 L -143.758 91.194 C -166.192 100.708 -188.628 110.221 -211.062 119.733 C -245.501 134.336 -279.67 146.531 -302.867 177.661 C -306.025 181.899 -309.184 186.137 -312.341 190.376 C -319.738 200.303 -327.135 210.23 -334.532 220.158 C -338.562 225.567 -342.188 231.001 -347.687 235.053 C -360.103 244.202 -383.516 241.747 -397.734 238.547 C -414.409 234.794 -430.531 226.365 -440.953 212.397 C -443.366 209.163 -445.516 205.924 -447.634 202.488 L -392.452 202.488 C -389.286 202.488 -384.538 201.107 -382.118 199.06 C -378.224 195.767 -378.939 190.252 -379.103 185.667 C -379.591 171.986 -379.313 158.244 -379.25 144.554 C -379.223 138.657 -380.498 134.052 -387.36 133.589" style="fill-opacity: 1; fill-rule: nonzero; paint-order: stroke; stroke-dashoffset: -24px;"/>
      </g>
    </g>
    <g style="clip-path: url(#clippath0);">
      <g transform="translate(108.3906 174.0835)">
        <path d="M 0 0 C 2.875 0 5.205 2.33 5.205 5.205 L 5.205 39.56 C 5.205 42.435 2.875 44.765 0 44.765 L -16.266 44.765 C -19.14 44.765 -21.471 42.435 -21.471 39.56 L -21.471 5.205 C -21.471 2.33 -19.14 0 -16.266 0 Z" style="fill: rgb(255, 255, 255); fill-opacity: 1;"/>
      </g>
    </g>
    <g style="clip-path: url(#clippath0);">
      <g transform="translate(104.5283 174.999)">
        <path d="M 0 0 L 0 42.934 C 0 45.292 -1.912 47.204 -4.271 47.204 C -6.629 47.204 -8.542 45.292 -8.542 42.934 L -8.542 0 C -8.542 -2.358 -6.629 -4.271 -4.271 -4.271 C -1.912 -4.271 0 -2.358 0 0" style="fill: rgb(0, 0, 0); fill-opacity: 1;"/>
      </g>
    </g>
    <g style="clip-path: url(#clippath0);">
      <g transform="translate(90.3672 210.436)">
        <path d="M 0 0 L 0 -4.776 C 0 -4.776 11.688 0.899 19.781 0.956 L 19.781 6.575 C 19.781 6.575 7.643 4.439 0 0" style="fill: rgb(35, 31, 32); fill-opacity: 1;"/>
      </g>
    </g>
    <g style="clip-path: url(#clippath0);">
      <g transform="translate(90.3672 205.9634)">
        <path d="M 0 0 L 0 -4.776 C 0 -4.776 11.688 0.899 19.781 0.956 L 19.781 6.575 C 19.781 6.575 7.643 4.439 0 0" style="fill: rgb(255, 255, 255); fill-opacity: 1;"/>
      </g>
    </g>
    <g style="clip-path: url(#clippath0);">
      <g transform="translate(90.3672 201.4448)">
        <path d="M 0 0 L 0 -4.776 C 0 -4.776 11.688 0.899 19.781 0.956 L 19.781 6.575 C 19.781 6.575 7.643 4.439 0 0" style="fill: rgb(35, 31, 32); fill-opacity: 1;"/>
      </g>
    </g>
    <g style="clip-path: url(#clippath0);">
      <g transform="translate(90.3672 196.9722)">
        <path d="M 0 0 L 0 -4.776 C 0 -4.776 11.688 0.899 19.781 0.956 L 19.781 6.575 C 19.781 6.575 7.643 4.439 0 0" style="fill: rgb(255, 255, 255); fill-opacity: 1;"/>
      </g>
    </g>
    <g style="clip-path: url(#clippath0);">
      <g transform="translate(90.3672 192.4536)">
        <path d="M 0 0 L 0 -4.776 C 0 -4.776 11.688 0.899 19.781 0.956 L 19.781 6.575 C 19.781 6.575 7.643 4.439 0 0" style="fill: rgb(35, 31, 32); fill-opacity: 1;"/>
      </g>
    </g>
    <g style="clip-path: url(#clippath0);">
      <g transform="translate(90.3672 187.981)">
        <path d="M 0 0 L 0 -4.776 C 0 -4.776 11.688 0.899 19.781 0.956 L 19.781 6.575 C 19.781 6.575 7.643 4.439 0 0" style="fill: rgb(255, 255, 255); fill-opacity: 1;"/>
      </g>
    </g>
    <g style="clip-path: url(#clippath0);">
      <g transform="translate(90.3672 184.5415)">
        <path d="M 0 0 L 0 -4.776 C 0 -4.776 11.688 0.899 19.781 0.956 L 19.781 6.575 C 19.781 6.575 7.643 4.439 0 0" style="fill: rgb(35, 31, 32); fill-opacity: 1;"/>
      </g>
    </g>
    <g style="clip-path: url(#clippath0);">
      <g transform="translate(90.3672 180.0688)">
        <path d="M 0 0 L 0 -4.776 C 0 -4.776 11.688 0.899 19.781 0.956 L 19.781 6.575 C 19.781 6.575 7.643 4.439 0 0" style="fill: rgb(255, 255, 255); fill-opacity: 1;"/>
      </g>
    </g>
  </g>
  <rect x="-139.971" y="-64.163" width="48.451" height="20.082" style="fill: rgb(216, 216, 216); stroke: rgb(0, 0, 0);" transform="matrix(-0.00173, 0.999999, -0.999999, -0.00173, 106.214029, 171.892565)"/>
  <rect x="-139.971" y="-64.163" width="48.451" height="20.082" style="fill: rgb(216, 216, 216); stroke: rgb(0, 0, 0);" transform="matrix(-0.00173, 0.999999, -0.999999, -0.00173, 82.639749, 171.476229)"/>
  <rect x="-139.971" y="-64.163" width="48.451" height="20.082" style="fill: rgb(216, 216, 216); stroke: rgb(0, 0, 0);" transform="matrix(-0.00173, 0.999999, -0.999999, -0.00173, 59.237721, 171.095935)"/>
  <rect x="-139.971" y="-64.163" width="48.451" height="20.082" style="fill: rgb(216, 216, 216); stroke: rgb(0, 0, 0);" transform="matrix(-0.00173, 0.999999, -0.999999, -0.00173, 35.838757, 170.363742)"/>
  <rect x="-121.19" y="-63.908" width="41.95" height="20.002" style="fill: rgb(216, 216, 216); stroke: rgb(0, 0, 0);" transform="matrix(-0.647448, 0.76211, -0.784078, -0.621589, 59.524087, 144.335848)"/>
  <rect x="-682.317" y="-179.18" width="59.674" height="17.679" style="stroke: rgb(0, 0, 0); fill: rgb(255, 183, 0);" transform="matrix(0.000157, 1, -1, 0.000157, -66.596978, 806.212781)" bx:origin="0.459 1.055"/>
  <rect x="-682.317" y="-179.18" width="59.674" height="17.679" style="stroke: rgb(0, 0, 0); fill: rgb(255, 183, 0);" transform="matrix(0.000157, 1, -1, 0.000157, -24.694092, 806.009656)" bx:origin="0.459 1.055"/>
  <rect x="-122.285" y="-63.336" width="42.329" height="19.823" style="fill: rgb(216, 216, 216); stroke: rgb(0, 0, 0);" transform="matrix(-0.749344, -0.662181, 0.663629, -0.748065, 126.4844, -22.679615)"/>
</svg>